# xmcd
# 
# Track frame offsets:
#     150
#     17923
#     33368
#     50261
#     68048
#     72014
#     86382
#     106681
# 
# Disc length: 1722
# 
# Revision: 0
# Processed by: cddbd v1.5.2PL0 Copyright (c) Steve Scherf et al.
# Submitted via: fre:ac v1.0.17
# 
DISCID=5806b808
DTITLE=Pile Driver - "Stay Ugly"
DYEAR=1986
DGENRE=Heavy Metal
TTITLE0=The Incubus
TTITLE1=Metal Death Racer
TTITLE2=The Fire God
TTITLE3=Chaos
TTITLE4=The Warning
TTITLE5=Lord of Abominations
TTITLE6=Flower of Evil
TTITLE7=The Executioner
EXTD=
EXTT0=
EXTT1=
EXTT2=
EXTT3=
EXTT4=
EXTT5=
EXTT6=
EXTT7=
PLAYORDER=
